<!DOCTYPE svg PUBLIC "-//W3C//DTD SVG 1.1//EN" "http://www.w3.org/Graphics/SVG/1.1/DTD/svg11.dtd">
<!-- Uploaded to: SVG Repo, www.svgrepo.com, Transformed by: SVG Repo Mixer Tools -->
<svg width="800px" height="800px" viewBox="0 0 24 24" xmlns="http://www.w3.org/2000/svg" id="money-alt" class="icon glyph" fill="#ffffff" stroke="#ffffff">
<g id="SVGRepo_bgCarrier" stroke-width="0"/>
<g id="SVGRepo_tracerCarrier" stroke-linecap="round" stroke-linejoin="round"/>
<g id="SVGRepo_iconCarrier">
<path d="M16,4H4A2,2,0,0,0,2,6v8a2,2,0,0,0,2,2H16a2,2,0,0,0,2-2V6A2,2,0,0,0,16,4Zm-6,8a2,2,0,1,1,2-2A2,2,0,0,1,10,12Zm12-2v8a2,2,0,0,1-2,2H8a2,2,0,0,1-2-2V17H16a3,3,0,0,0,3-3V8h1A2,2,0,0,1,22,10Z" style="fill:#ffffff"/>
</g>
</svg>