<!DOCTYPE svg PUBLIC "-//W3C//DTD SVG 1.1//EN" "http://www.w3.org/Graphics/SVG/1.1/DTD/svg11.dtd">
<!-- Uploaded to: SVG Repo, www.svgrepo.com, Transformed by: SVG Repo Mixer Tools -->
<svg width="64px" height="64px" viewBox="0 0 24 24" xmlns="http://www.w3.org/2000/svg" id="statistic-grow" class="icon glyph" fill="#04356B" stroke="#04356B" stroke-width="0.096">
<g id="SVGRepo_bgCarrier" stroke-width="0"/>
<g id="SVGRepo_tracerCarrier" stroke-linecap="round" stroke-linejoin="round"/>
<g id="SVGRepo_iconCarrier">
<path d="M22,5v5a1,1,0,0,1-2,0V7.41l-5.29,5.3a1,1,0,0,1-1.16.18L8.26,10.25,3.77,15.64A1,1,0,0,1,3,16a1,1,0,0,1-.64-.23,1,1,0,0,1-.13-1.41l5-6a1,1,0,0,1,1.22-.25l5.35,2.67L18.59,6H16a1,1,0,0,1,0-2h5a1,1,0,0,1,.38.08,1,1,0,0,1,.54.54A1,1,0,0,1,22,5ZM21,18H3a1,1,0,0,0,0,2H21a1,1,0,0,0,0-2Z" style="fill:#"/>
</g>
</svg>