<svg width="22" height="22" viewBox="0 0 22 22" fill="none" xmlns="http://www.w3.org/2000/svg">
<path d="M8.96622 3.56609C9.4831 3.1256 9.74151 2.90536 10.0117 2.77621C10.6367 2.47749 11.3633 2.47749 11.9883 2.77621C12.2585 2.90536 12.5169 3.1256 13.0338 3.56609C13.2395 3.7414 13.3424 3.82906 13.4523 3.90269C13.7041 4.07147 13.9869 4.18861 14.2842 4.24732C14.414 4.27295 14.5487 4.2837 14.8182 4.30519C15.4951 4.35921 15.8336 4.38623 16.116 4.48597C16.7691 4.71668 17.2829 5.23042 17.5136 5.88357C17.6134 6.16597 17.6403 6.50445 17.6944 7.18141C17.7159 7.45085 17.7266 7.58556 17.7523 7.7153C17.8109 8.01272 17.9281 8.29552 18.0969 8.54734C18.1705 8.6572 18.2582 8.76006 18.4335 8.96577C18.874 9.48265 19.0943 9.74115 19.2234 10.0113C19.5221 10.6363 19.5221 11.3628 19.2234 11.9878C19.0943 12.258 18.874 12.5164 18.4335 13.0334C18.2582 13.2391 18.1705 13.3419 18.0969 13.4518C17.9281 13.7036 17.8109 13.9864 17.7523 14.2839C17.7266 14.4136 17.7159 14.5483 17.6944 14.8177C17.6403 15.4947 17.6134 15.8331 17.5136 16.1156C17.2829 16.7687 16.7691 17.2825 16.116 17.5132C15.8336 17.6129 15.4951 17.6399 14.8182 17.694C14.5487 17.7154 14.414 17.7262 14.2842 17.7518C13.9869 17.8106 13.7041 17.9276 13.4523 18.0965C13.3424 18.1701 13.2395 18.2577 13.0338 18.4331C12.5169 18.8735 12.2585 19.0938 11.9883 19.223C11.3633 19.5216 10.6367 19.5216 10.0117 19.223C9.74151 19.0938 9.4831 18.8735 8.96622 18.4331C8.7605 18.2577 8.65763 18.1701 8.54778 18.0965C8.29596 17.9276 8.01316 17.8106 7.71575 17.7518C7.586 17.7262 7.45129 17.7154 7.18185 17.694C6.5049 17.6399 6.16641 17.6129 5.88402 17.5132C5.23087 17.2825 4.71711 16.7687 4.48641 16.1156C4.38667 15.8331 4.35966 15.4947 4.30564 14.8177C4.28413 14.5483 4.27339 14.4136 4.24777 14.2839C4.18906 13.9864 4.07192 13.7036 3.90313 13.4518C3.8295 13.3419 3.74184 13.2391 3.56653 13.0334C3.12604 12.5164 2.90581 12.258 2.77665 11.9878C2.47793 11.3628 2.47793 10.6363 2.77665 10.0113C2.90581 9.74106 3.12604 9.48265 3.56653 8.96577C3.74184 8.76006 3.8295 8.6572 3.90313 8.54734C4.07192 8.29552 4.18906 8.01272 4.24777 7.7153C4.27339 7.58556 4.28413 7.45085 4.30564 7.18141C4.35966 6.50445 4.38667 6.16597 4.48641 5.88357C4.71711 5.23042 5.23087 4.71668 5.88402 4.48597C6.16641 4.38623 6.5049 4.35921 7.18185 4.30519C7.45129 4.2837 7.586 4.27295 7.71575 4.24732C8.01316 4.18861 8.29596 4.07147 8.54778 3.90269C8.65764 3.82906 8.7605 3.7414 8.96622 3.56609Z" stroke="#22C55E" stroke-width="2.5"/>
<path d="M7.79166 11.4583L9.62499 13.2917L14.2083 8.70834" stroke="#22C55E" stroke-width="2.5" stroke-linecap="round" stroke-linejoin="round"/>
</svg>
